<?xml version="1.0" standalone="no"?>
<!DOCTYPE svg PUBLIC "-//W3C//DTD SVG 20010904//EN"
 "http://www.w3.org/TR/2001/REC-SVG-20010904/DTD/svg10.dtd">
<svg version="1.0" xmlns="http://www.w3.org/2000/svg"
 width="300.000000pt" height="158.000000pt" viewBox="0 0 300.000000 158.000000"
 preserveAspectRatio="xMidYMid meet">
<metadata>
Created by potrace 1.10, written by Peter Selinger 2001-2011
</metadata>
<g transform="translate(0.000000,158.000000) scale(0.100000,-0.100000)"
fill="#000000" stroke="none">
<path d="M2184 985 c-90 -46 -119 -127 -70 -198 l26 -37 -20 -33 c-28 -45 -25
-71 10 -101 40 -33 94 -47 185 -47 87 0 135 18 169 65 46 61 45 121 -1 177
-25 30 -26 32 -10 59 52 87 -13 140 -169 140 -55 0 -81 -5 -120 -25z m226 -26
c55 -12 55 -12 39 -58 -10 -29 -14 -32 -38 -24 -14 4 -62 8 -106 8 -74 0 -80
-2 -83 -21 -4 -25 19 -34 88 -34 101 0 170 -41 170 -100 0 -46 -27 -90 -65
-106 -71 -29 -267 -8 -282 32 -3 7 5 27 16 43 l22 30 32 -18 c41 -24 97 -34
143 -25 72 13 47 64 -32 64 -75 0 -142 19 -164 47 -42 54 -8 141 63 162 45 13
137 13 197 0z"/>
<path d="M507 982 c-10 -10 -17 -27 -17 -36 0 -18 40 -111 115 -269 38 -80 68
-107 118 -107 33 0 77 37 77 64 0 15 12 31 37 47 30 19 46 42 80 119 65 148
65 148 43 170 -14 14 -34 20 -65 20 -41 0 -47 -3 -68 -37 -13 -21 -36 -66 -52
-100 -15 -35 -32 -60 -37 -57 -5 3 -25 40 -44 82 -48 104 -66 122 -124 122
-33 0 -52 -6 -63 -18z m183 -189 c41 -91 77 -170 79 -175 1 -5 -18 -8 -44 -6
l-48 3 -79 169 c-43 93 -78 171 -78 173 0 2 21 3 48 3 l47 0 75 -167z m229 88
c-20 -43 -47 -101 -59 -130 l-22 -51 -49 0 -48 0 23 53 c13 28 40 87 59 130
l36 77 49 0 49 0 -38 -79z"/>
<path d="M1082 977 c-12 -12 -35 -54 -53 -92 -17 -39 -47 -103 -66 -144 -49
-105 -51 -123 -18 -150 15 -11 39 -21 52 -21 28 0 74 22 92 44 10 12 32 16 78
16 59 0 69 -3 101 -31 30 -27 41 -30 75 -26 22 3 46 12 55 20 13 13 18 13 46
-4 17 -10 41 -19 52 -19 33 0 73 37 80 75 4 25 12 35 25 35 17 0 69 -47 69
-63 0 -15 65 -47 96 -47 34 0 84 33 84 56 0 8 -12 33 -27 55 -24 36 -25 43
-13 62 60 95 49 169 -34 231 -24 19 -44 21 -175 24 l-148 3 -22 -27 c-19 -24
-21 -39 -21 -157 0 -86 -3 -128 -10 -121 -5 5 -30 51 -55 102 -35 72 -52 97
-80 113 -19 12 -35 29 -35 38 0 52 -107 72 -148 28z m118 -21 c0 -3 -22 -50
-49 -105 l-48 -101 63 0 63 0 -29 65 -29 65 47 0 47 0 62 -135 61 -135 -47 0
c-44 0 -48 2 -64 35 l-17 35 -93 0 -93 0 -17 -35 c-15 -33 -20 -35 -63 -35
-25 0 -44 4 -42 9 2 4 37 83 78 174 l75 166 48 1 c26 0 47 -2 47 -4z m561 -19
c61 -41 65 -125 8 -178 l-31 -28 47 -61 46 -60 -54 0 -55 0 -37 55 -38 55 -56
0 -56 0 3 -55 4 -55 -46 0 -46 0 0 175 0 175 139 0 c127 0 141 -2 172 -23z"/>
<path d="M1536 843 l2 -48 84 4 c45 2 86 5 91 8 4 2 7 17 7 33 0 40 -23 50
-112 50 l-74 0 2 -47z"/>
<path d="M1912 977 c-21 -22 -22 -33 -22 -191 0 -164 0 -167 25 -191 30 -31
73 -32 109 -4 l26 20 0 175 c0 161 -2 176 -20 194 -29 29 -90 27 -118 -3z
m101 -189 l-2 -173 -40 -3 -41 -3 0 175 0 176 43 0 42 0 -2 -172z"/>
</g>
</svg>
